<svg version="1.1" xmlns="http://www.w3.org/2000/svg" viewBox="0 0 829.3639984130859 515" width="1658.7279968261719" height="1030">
  <!-- svg-source:excalidraw -->
  
  <defs>
    <style class="style-fonts">
      @font-face {
        font-family: "Virgil";
        src: url("https://excalidraw.com/Virgil.woff2");
      }
      @font-face {
        font-family: "Cascadia";
        src: url("https://excalidraw.com/Cascadia.woff2");
      }
      @font-face {
        font-family: "Assistant";
        src: url("https://excalidraw.com/Assistant-Regular.woff2");
      }
    </style>
    
  </defs>
  <rect x="0" y="0" width="829.3639984130859" height="515" fill="#ffffff"></rect><g stroke-linecap="round" transform="translate(25.863998413085938 195) rotate(0 97.5 35)"><path d="M17.5 0 C79.88 -0.14, 140.67 0.94, 177.5 0 M17.5 0 C64.43 0.76, 110.6 0.8, 177.5 0 M177.5 0 C190.1 -1.32, 193.16 5.64, 195 17.5 M177.5 0 C188.98 -0.31, 192.82 6.1, 195 17.5 M195 17.5 C195.97 30.01, 195.91 43.21, 195 52.5 M195 17.5 C194.27 26.98, 195.29 36.28, 195 52.5 M195 52.5 C194.41 63.48, 187.46 71.09, 177.5 70 M195 52.5 C192.86 62.59, 189.41 71.67, 177.5 70 M177.5 70 C141.34 71.47, 107.11 70.15, 17.5 70 M177.5 70 C131.56 70.92, 86.76 70.25, 17.5 70 M17.5 70 C4.95 71.45, -0.01 64.04, 0 52.5 M17.5 70 C6.26 68.38, 1.6 64.36, 0 52.5 M0 52.5 C-1.97 40.9, 1.46 27.6, 0 17.5 M0 52.5 C0.4 42.1, -0.27 30.75, 0 17.5 M0 17.5 C1.56 6.36, 4.25 -0.21, 17.5 0 M0 17.5 C1.88 7.25, 4.62 1.91, 17.5 0" stroke="#1e1e1e" stroke-width="2" fill="none"></path></g><g transform="translate(93.36399841308594 217.5) rotate(0 30 12.5)"><text x="30" y="0" font-family="Virgil, Segoe UI Emoji" font-size="20px" fill="#1e1e1e" text-anchor="middle" style="white-space: pre;" direction="ltr" dominant-baseline="text-before-edge">服务端</text></g><g stroke-linecap="round" transform="translate(74.86399841308594 446) rotate(0 88.5 28)"><path d="M14 0 C54.89 0.25, 96.86 1.09, 163 0 M14 0 C57.18 -1.32, 102.34 -0.52, 163 0 M163 0 C170.51 0.59, 176.2 5.31, 177 14 M163 0 C171.25 0.58, 175.51 5.95, 177 14 M177 14 C178.09 23.22, 177.86 29.27, 177 42 M177 14 C176.96 22.3, 177.09 30.72, 177 42 M177 42 C178.5 51.81, 171.74 57.72, 163 56 M177 42 C176.03 49.29, 172.01 53.74, 163 56 M163 56 C113.84 53.59, 62.95 55.19, 14 56 M163 56 C130.31 56.84, 97.04 57.69, 14 56 M14 56 C5.81 56.02, -1.72 52.43, 0 42 M14 56 C5.36 57.06, -1.89 52.95, 0 42 M0 42 C-0.79 37.66, 1.53 28.5, 0 14 M0 42 C0.3 33.43, 0.91 25.39, 0 14 M0 14 C-0.34 4.83, 3.48 -0.61, 14 0 M0 14 C0.7 3.68, 4.39 2.24, 14 0" stroke="#1e1e1e" stroke-width="2" fill="none"></path></g><g transform="translate(107.1039924621582 461.5) rotate(0 56.260005950927734 12.5)"><text x="56.260005950927734" y="0" font-family="Virgil, Segoe UI Emoji" font-size="20px" fill="#1e1e1e" text-anchor="middle" style="white-space: pre;" direction="ltr" dominant-baseline="text-before-edge">设备 1.2.3.4</text></g><g stroke-linecap="round" transform="translate(301.36399841308594 449) rotate(0 88.5 28)"><path d="M14 0 C64.03 -3.23, 113.85 -2.28, 163 0 M14 0 C55.8 0.07, 97.69 0.49, 163 0 M163 0 C171.81 0.99, 177.58 5.73, 177 14 M163 0 C173.58 -2.07, 178.78 3.79, 177 14 M177 14 C177 25.09, 176.12 33.18, 177 42 M177 14 C176.43 20.22, 177.87 26.6, 177 42 M177 42 C175.26 49.88, 173.56 57.44, 163 56 M177 42 C178.32 49.97, 171.84 57.87, 163 56 M163 56 C119.78 54.23, 77.07 54.44, 14 56 M163 56 C129.47 55.01, 97.55 55.5, 14 56 M14 56 C3.06 54.94, -1.59 51.28, 0 42 M14 56 C2.68 55.87, 2.04 52.02, 0 42 M0 42 C1.4 34.67, 1.67 28.13, 0 14 M0 42 C-0.86 32.86, -0.25 23.75, 0 14 M0 14 C-1.28 3.98, 3.1 -1.59, 14 0 M0 14 C-0.05 2.58, 3.06 -2.2, 14 0" stroke="#1e1e1e" stroke-width="2" fill="none"></path></g><g transform="translate(316.65399169921875 464.5) rotate(0 73.21000671386719 12.5)"><text x="73.21000671386719" y="0" font-family="Virgil, Segoe UI Emoji" font-size="20px" fill="#1e1e1e" text-anchor="middle" style="white-space: pre;" direction="ltr" dominant-baseline="text-before-edge">设备 10.0.0.123</text></g><g transform="translate(116.86399841308594 363) rotate(0 56.75000762939453 25)"><text x="56.75000762939453" y="0" font-family="Virgil, Segoe UI Emoji" font-size="20px" fill="#1e1e1e" text-anchor="middle" style="white-space: pre;" direction="ltr" dominant-baseline="text-before-edge">example.com</text><text x="56.75000762939453" y="25" font-family="Virgil, Segoe UI Emoji" font-size="20px" fill="#1e1e1e" text-anchor="middle" style="white-space: pre;" direction="ltr" dominant-baseline="text-before-edge">2.3.4.5</text></g><g transform="translate(330.1139907836914 360) rotate(0 56.75000762939453 25)"><text x="56.75000762939453" y="0" font-family="Virgil, Segoe UI Emoji" font-size="20px" fill="#1e1e1e" text-anchor="middle" style="white-space: pre;" direction="ltr" dominant-baseline="text-before-edge">example.com</text><text x="56.75000762939453" y="25" font-family="Virgil, Segoe UI Emoji" font-size="20px" fill="#1e1e1e" text-anchor="middle" style="white-space: pre;" direction="ltr" dominant-baseline="text-before-edge">10.0.0.172</text></g><g stroke-linecap="round"><g transform="translate(95.69340312869048 271) rotate(0 21.11468134882429 84.50000000000003)"><path d="M-0.09 -0.83 C7.1 27.22, 36.11 140.96, 43.24 169.32 M-1.6 1.36 C5.52 29.54, 35.53 139.72, 42.83 167.37" stroke="#1e1e1e" stroke-width="2" fill="none"></path></g><g transform="translate(95.69340312869048 271) rotate(0 21.11468134882429 84.50000000000003)"><path d="M28.48 146.9 C31.68 154.86, 37.98 160.26, 42.83 167.37 M28.48 146.9 C32.19 154.59, 37.42 161.37, 42.83 167.37" stroke="#1e1e1e" stroke-width="2" fill="none"></path></g><g transform="translate(95.69340312869048 271) rotate(0 21.11468134882429 84.50000000000003)"><path d="M44.99 142.46 C43.18 151.77, 44.43 158.53, 42.83 167.37 M44.99 142.46 C43.21 151.71, 42.97 159.96, 42.83 167.37" stroke="#1e1e1e" stroke-width="2" fill="none"></path></g></g><mask></mask><g stroke-linecap="round"><g transform="translate(209.3772020844674 270) rotate(0 83.48861741701847 85)"><path d="M0.31 1.09 C27.96 29.42, 138.85 140.77, 166.82 169 M-0.98 0.61 C26.41 29.15, 137.63 142.05, 165.79 170.01" stroke="#1e1e1e" stroke-width="2" fill="none"></path></g><g transform="translate(209.3772020844674 270) rotate(0 83.48861741701847 85)"><path d="M143.16 159.37 C153.46 163.08, 158.55 169.26, 165.79 170.01 M143.16 159.37 C151.82 162.7, 158.35 166.77, 165.79 170.01" stroke="#1e1e1e" stroke-width="2" fill="none"></path></g><g transform="translate(209.3772020844674 270) rotate(0 83.48861741701847 85)"><path d="M155.29 147.32 C160.89 155.62, 161.39 166.37, 165.79 170.01 M155.29 147.32 C159.89 154.82, 162.31 162.98, 165.79 170.01" stroke="#1e1e1e" stroke-width="2" fill="none"></path></g></g><mask></mask><g transform="translate(132.7760009765625 278.5) rotate(0 42.08799743652344 10)"><text x="42.08799743652344" y="0" font-family="Virgil, Segoe UI Emoji" font-size="16px" fill="#1e1e1e" text-anchor="middle" style="white-space: pre;" direction="ltr" dominant-baseline="text-before-edge">@10.0.0.53</text></g><g transform="translate(10 277) rotate(0 33.86399841308594 10)"><text x="33.86399841308594" y="0" font-family="Virgil, Segoe UI Emoji" font-size="16px" fill="#1e1e1e" text-anchor="middle" style="white-space: pre;" direction="ltr" dominant-baseline="text-before-edge">@7.7.8.8</text></g><g stroke-linecap="round" transform="translate(324.36399841308594 193) rotate(0 97.5 35)"><path d="M17.5 0 C69.99 -1.59, 119.01 -1.99, 177.5 0 M17.5 0 C49.68 -2.49, 82.06 -0.66, 177.5 0 M177.5 0 C187.7 -1.18, 193.97 7.07, 195 17.5 M177.5 0 C189.74 -2.04, 192.75 5.3, 195 17.5 M195 17.5 C194.93 29.69, 193.6 41.74, 195 52.5 M195 17.5 C195.29 26.49, 194.09 34.65, 195 52.5 M195 52.5 C196.59 65.09, 190.12 68.53, 177.5 70 M195 52.5 C192.92 66.06, 190.13 70.31, 177.5 70 M177.5 70 C134.14 70.32, 90.49 71.32, 17.5 70 M177.5 70 C116.46 70.27, 57.78 70.61, 17.5 70 M17.5 70 C5.82 70.02, -1.96 62.29, 0 52.5 M17.5 70 C5 72.05, -1.61 62.42, 0 52.5 M0 52.5 C0.87 46.03, -1.23 37.62, 0 17.5 M0 52.5 C-1.04 40.19, 0.72 29.64, 0 17.5 M0 17.5 C-1.63 6.5, 5.87 1.29, 17.5 0 M0 17.5 C1.13 3.92, 3.81 -2.23, 17.5 0" stroke="#1e1e1e" stroke-width="2" fill="none"></path></g><g transform="translate(391.86399841308594 215.5) rotate(0 30 12.5)"><text x="30" y="0" font-family="Virgil, Segoe UI Emoji" font-size="20px" fill="#1e1e1e" text-anchor="middle" style="white-space: pre;" direction="ltr" dominant-baseline="text-before-edge">服务端</text></g><g stroke-linecap="round"><g transform="translate(323.86399841308594 273) rotate(0 -68.5 83.5)"><path d="M-0.88 0.98 C-23.46 28.53, -113.52 138.17, -136.27 165.94 M0.86 0.44 C-21.75 28.06, -113.63 139.4, -136.83 166.92" stroke="#1e1e1e" stroke-width="2" fill="none"></path></g><g transform="translate(323.86399841308594 273) rotate(0 -68.5 83.5)"><path d="M-128.37 143.39 C-128.63 150.13, -134.04 153.85, -136.83 166.92 M-128.37 143.39 C-130.52 152.11, -135.02 159.97, -136.83 166.92" stroke="#1e1e1e" stroke-width="2" fill="none"></path></g><g transform="translate(323.86399841308594 273) rotate(0 -68.5 83.5)"><path d="M-115.23 154.34 C-118.66 158.38, -127.19 159.51, -136.83 166.92 M-115.23 154.34 C-121.91 159.11, -131.02 163.13, -136.83 166.92" stroke="#1e1e1e" stroke-width="2" fill="none"></path></g></g><mask></mask><g stroke-linecap="round"><g transform="translate(460.86399841308594 275) rotate(0 -17.5 84)"><path d="M-0.98 -0.62 C-6.92 27.59, -30.61 140.61, -36.15 168.87 M0.71 1.67 C-4.83 29.58, -28.16 139.64, -34.05 167.2" stroke="#1e1e1e" stroke-width="2" fill="none"></path></g><g transform="translate(460.86399841308594 275) rotate(0 -17.5 84)"><path d="M-37.53 142.44 C-37.74 146.88, -34.38 156.37, -34.05 167.2 M-37.53 142.44 C-36.82 152.38, -35.65 161.13, -34.05 167.2" stroke="#1e1e1e" stroke-width="2" fill="none"></path></g><g transform="translate(460.86399841308594 275) rotate(0 -17.5 84)"><path d="M-20.8 146 C-25.28 149.39, -26.19 157.97, -34.05 167.2 M-20.8 146 C-26.37 154.56, -31.48 161.98, -34.05 167.2" stroke="#1e1e1e" stroke-width="2" fill="none"></path></g></g><mask></mask><g transform="translate(474.10400390625 274) rotate(0 41.75999450683594 10)"><text x="41.75999450683594" y="0" font-family="Virgil, Segoe UI Emoji" font-size="16px" fill="#1e1e1e" text-anchor="middle" style="white-space: pre;" direction="ltr" dominant-baseline="text-before-edge">@10.0.0.54</text></g><g transform="translate(324.2480010986328 273) rotate(0 32.615997314453125 10)"><text x="32.615997314453125" y="0" font-family="Virgil, Segoe UI Emoji" font-size="16px" fill="#1e1e1e" text-anchor="middle" style="white-space: pre;" direction="ltr" dominant-baseline="text-before-edge">@7.7.8.9</text></g><g stroke-linecap="round" transform="translate(177.36399841308594 10) rotate(0 97.5 34.99999999999999)"><path d="M17.5 0 C70.84 -1.83, 127.31 -0.44, 177.5 0 M17.5 0 C62.19 -0.79, 105.1 0.35, 177.5 0 M177.5 0 C188.53 -1.81, 196.64 4.07, 195 17.5 M177.5 0 C187.17 0.62, 195.72 5.43, 195 17.5 M195 17.5 C196.11 30.5, 195.85 39.18, 195 52.5 M195 17.5 C194.53 26.37, 195.12 34.73, 195 52.5 M195 52.5 C193.05 65.94, 190.78 71.95, 177.5 70 M195 52.5 C194.77 66.01, 190.43 68.89, 177.5 70 M177.5 70 C142.43 67.17, 102.62 69.17, 17.5 70 M177.5 70 C134.07 71.52, 89.46 70.32, 17.5 70 M17.5 70 C6.02 69.01, -1.38 62.24, 0 52.5 M17.5 70 C8.1 71.62, -1.6 64.54, 0 52.5 M0 52.5 C-1.76 40.07, 1.69 24.22, 0 17.5 M0 52.5 C-0.13 41.19, 0.78 31.89, 0 17.5 M0 17.5 C1.01 5.43, 7.41 0.5, 17.5 0 M0 17.5 C1.88 5.6, 6.06 -1.08, 17.5 0" stroke="#1e1e1e" stroke-width="2" fill="none"></path></g><g transform="translate(244.86399841308594 32.49999999999999) rotate(0 30 12.5)"><text x="30" y="0" font-family="Virgil, Segoe UI Emoji" font-size="20px" fill="#1e1e1e" text-anchor="middle" style="white-space: pre;" direction="ltr" dominant-baseline="text-before-edge">控制器</text></g><g stroke-linecap="round"><g transform="translate(205.86399841308594 90) rotate(0 -41.5 49)"><path d="M-0.21 -0.01 C-14.02 16.38, -70.17 81.31, -84.04 97.47 M-1.78 -1.06 C-15.13 15.57, -68.09 82.27, -81.87 98.73" stroke="#1e1e1e" stroke-width="2" fill="none"></path></g><g transform="translate(205.86399841308594 90) rotate(0 -41.5 49)"><path d="M-73.69 75.11 C-75.53 78.12, -78.04 83.89, -81.87 98.73 M-73.69 75.11 C-75.88 81.06, -77.33 85.51, -81.87 98.73" stroke="#1e1e1e" stroke-width="2" fill="none"></path></g><g transform="translate(205.86399841308594 90) rotate(0 -41.5 49)"><path d="M-60.42 85.89 C-64.85 86.71, -70.03 90.3, -81.87 98.73 M-60.42 85.89 C-65.47 89.65, -69.73 91.81, -81.87 98.73" stroke="#1e1e1e" stroke-width="2" fill="none"></path></g></g><mask></mask><g stroke-linecap="round"><g transform="translate(345.86399841308594 91) rotate(0 39 45.5)"><path d="M1.12 0.21 C13.92 15.17, 65.22 75.39, 77.98 90.68 M0.24 -0.72 C12.79 14.33, 64.28 76.91, 77.02 92.06" stroke="#1e1e1e" stroke-width="2" fill="none"></path></g><g transform="translate(345.86399841308594 91) rotate(0 39 45.5)"><path d="M55.43 79.45 C64.41 84.18, 72.04 88.6, 77.02 92.06 M55.43 79.45 C63.46 83.53, 72.3 89.76, 77.02 92.06" stroke="#1e1e1e" stroke-width="2" fill="none"></path></g><g transform="translate(345.86399841308594 91) rotate(0 39 45.5)"><path d="M68.59 68.52 C72.46 77.69, 74.9 86.42, 77.02 92.06 M68.59 68.52 C71.6 76.78, 75.41 87.2, 77.02 92.06" stroke="#1e1e1e" stroke-width="2" fill="none"></path></g></g><mask></mask><g stroke-linecap="round" transform="translate(550.8639984130859 28) rotate(0 133.5 40)"><path d="M20 0 C79.18 -0.87, 136.75 0.59, 247 0 M20 0 C66.29 -0.81, 113.34 0.43, 247 0 M247 0 C260.91 -0.8, 268.8 6.17, 267 20 M247 0 C260.82 -1.82, 269.14 6.48, 267 20 M267 20 C266.85 29.73, 265.6 41.89, 267 60 M267 20 C266.76 29.43, 267.45 37.93, 267 60 M267 60 C268.64 72.66, 261.54 81.69, 247 80 M267 60 C266.36 73.32, 258.74 77.85, 247 80 M247 80 C168.02 79.8, 91.08 81.45, 20 80 M247 80 C175.04 79.35, 102.65 79.62, 20 80 M20 80 C6.52 81.91, 0.66 73.45, 0 60 M20 80 C7.48 82.21, 2.15 73.9, 0 60 M0 60 C0.5 52.68, 1.77 42.19, 0 20 M0 60 C0.72 51.91, -0.84 44.65, 0 20 M0 20 C1.89 7.99, 4.96 -0.39, 20 0 M0 20 C0.03 8.09, 5.92 2.18, 20 0" stroke="#1e1e1e" stroke-width="2" fill="none"></path></g><g transform="translate(555.8639984130859 43) rotate(0 122.82998657226562 25)"><text x="0" y="0" font-family="Virgil, Segoe UI Emoji" font-size="20px" fill="#1e1e1e" text-anchor="start" style="white-space: pre;" direction="ltr" dominant-baseline="text-before-edge">ACL: 10.0.0.0/8</text><text x="0" y="25" font-family="Virgil, Segoe UI Emoji" font-size="20px" fill="#1e1e1e" text-anchor="start" style="white-space: pre;" direction="ltr" dominant-baseline="text-before-edge">example.com. A 10.0.0.172</text></g><g stroke-linecap="round" transform="translate(552.3639984130859 127) rotate(0 133.5 40)"><path d="M20 0 C99.19 -1.74, 178.75 -1.89, 247 0 M20 0 C73.17 -1.18, 126.77 -1.41, 247 0 M247 0 C260.13 -0.89, 268.66 7.13, 267 20 M247 0 C259.05 0.54, 266.61 7.63, 267 20 M267 20 C269.2 34.66, 268.03 47.36, 267 60 M267 20 C267.72 35.31, 267.13 49.78, 267 60 M267 60 C268.43 75.23, 261.02 81.06, 247 80 M267 60 C264.77 71.7, 260.07 79.15, 247 80 M247 80 C169.24 80.17, 92.92 81.32, 20 80 M247 80 C171.19 79.31, 95.69 78.69, 20 80 M20 80 C5.88 80.88, -0.54 72.58, 0 60 M20 80 C7.73 79.66, 1.24 74.4, 0 60 M0 60 C-0.67 43.88, -0.8 28.87, 0 20 M0 60 C0.02 50.8, 0.79 41.3, 0 20 M0 20 C1.47 5.92, 5.41 1.88, 20 0 M0 20 C-1.82 7.4, 4.93 -1.38, 20 0" stroke="#1e1e1e" stroke-width="2" fill="none"></path></g><g transform="translate(557.3639984130859 142) rotate(0 110.77999877929688 25)"><text x="0" y="0" font-family="Virgil, Segoe UI Emoji" font-size="20px" fill="#1e1e1e" text-anchor="start" style="white-space: pre;" direction="ltr" dominant-baseline="text-before-edge">ACL: 0.0.0.0/0</text><text x="0" y="25" font-family="Virgil, Segoe UI Emoji" font-size="20px" fill="#1e1e1e" text-anchor="start" style="white-space: pre;" direction="ltr" dominant-baseline="text-before-edge">example.com. A 2.3.4.5</text></g><g stroke-linecap="round"><g transform="translate(375.86399841308594 42) rotate(0 86.5 13)"><path d="M0.98 -1.16 C29.9 3.37, 144.42 22.7, 173.14 27.11 M0.04 0.85 C28.85 5.07, 143.5 21.33, 172.26 25.56" stroke="#1e1e1e" stroke-width="2" fill="none"></path></g></g><mask></mask><g stroke-linecap="round"><g transform="translate(375.86399841308594 42) rotate(0 86.5 64)"><path d="M-0.99 -0.87 C27.81 20.15, 143.23 105.22, 172.33 126.89 M0.69 1.29 C29.92 22.35, 145.95 106.82, 174.7 127.84" stroke="#1e1e1e" stroke-width="2" fill="none"></path></g></g><mask></mask></svg>