<svg version="1.1" xmlns="http://www.w3.org/2000/svg" viewBox="0 0 550 415" width="1100" height="830">
  <!-- svg-source:excalidraw -->
  
  <defs>
    <style class="style-fonts">
      @font-face {
        font-family: "Virgil";
        src: url("https://excalidraw.com/Virgil.woff2");
      }
      @font-face {
        font-family: "Cascadia";
        src: url("https://excalidraw.com/Cascadia.woff2");
      }
      @font-face {
        font-family: "Assistant";
        src: url("https://excalidraw.com/Assistant-Regular.woff2");
      }
    </style>
    
  </defs>
  <rect x="0" y="0" width="550" height="415" fill="#ffffff"></rect><g stroke-linecap="round" transform="translate(156 10) rotate(0 114 35.5)"><path d="M17.75 0 C83.25 -3.32, 150.51 -1.03, 210.25 0 M17.75 0 C77.87 1.27, 138.9 -0.26, 210.25 0 M210.25 0 C221.65 -0.11, 229.46 6.06, 228 17.75 M210.25 0 C223.48 1.84, 228.27 8.14, 228 17.75 M228 17.75 C229.93 29.12, 226.29 38.96, 228 53.25 M228 17.75 C228.2 31.49, 228.05 45.17, 228 53.25 M228 53.25 C228.15 65.88, 221.26 69.33, 210.25 71 M228 53.25 C228.78 63.15, 222.54 72.08, 210.25 71 M210.25 71 C168.81 71.24, 124.5 71.68, 17.75 71 M210.25 71 C144.31 71.75, 79.37 70.77, 17.75 71 M17.75 71 C5.16 70.8, 1.43 66.12, 0 53.25 M17.75 71 C4.17 70.79, -0.86 65.17, 0 53.25 M0 53.25 C-1.91 38.6, -1.23 29.45, 0 17.75 M0 53.25 C0.34 40.58, 0.5 27.55, 0 17.75 M0 17.75 C1.24 4.74, 7.46 -0.87, 17.75 0 M0 17.75 C-1 5.53, 4.46 1.55, 17.75 0" stroke="#1e1e1e" stroke-width="2" fill="none"></path></g><g transform="translate(240 33) rotate(0 30 12.5)"><text x="30" y="0" font-family="Virgil, Segoe UI Emoji" font-size="20px" fill="#1e1e1e" text-anchor="middle" style="white-space: pre;" direction="ltr" dominant-baseline="text-before-edge">控制器</text></g><g stroke-linecap="round" transform="translate(10 185.5) rotate(0 114 35.5)"><path d="M17.75 0 C80.69 1.24, 142.88 -0.13, 210.25 0 M17.75 0 C86.87 2.64, 154.66 2.57, 210.25 0 M210.25 0 C220.8 -0.26, 229.88 4.19, 228 17.75 M210.25 0 C224.28 1.59, 227.76 5.36, 228 17.75 M228 17.75 C228.32 30.61, 227.18 45.77, 228 53.25 M228 17.75 C228.41 27.77, 227.43 38.56, 228 53.25 M228 53.25 C226.38 65.65, 221.22 69.55, 210.25 71 M228 53.25 C229.78 63.12, 220.61 69.85, 210.25 71 M210.25 71 C140.2 67.63, 70.97 69.99, 17.75 71 M210.25 71 C157.26 70.33, 103.84 70.61, 17.75 71 M17.75 71 C6.89 69.78, -0.26 66.71, 0 53.25 M17.75 71 C5.91 73.28, 1.95 66.33, 0 53.25 M0 53.25 C-0.71 44.34, 1.84 35.44, 0 17.75 M0 53.25 C0.25 41.89, 0.6 29.91, 0 17.75 M0 17.75 C0.01 4.22, 7.8 0.6, 17.75 0 M0 17.75 C-1.88 6.51, 4.81 -1.69, 17.75 0" stroke="#1e1e1e" stroke-width="2" fill="none"></path></g><g transform="translate(94 208.5) rotate(0 30 12.5)"><text x="30" y="0" font-family="Virgil, Segoe UI Emoji" font-size="20px" fill="#1e1e1e" text-anchor="middle" style="white-space: pre;" direction="ltr" dominant-baseline="text-before-edge">服务端</text></g><g stroke-linecap="round" transform="translate(312 184.5) rotate(0 114 35.5)"><path d="M17.75 0 C80.59 -1.44, 143.94 -2.32, 210.25 0 M17.75 0 C72.85 0.12, 127.52 0.57, 210.25 0 M210.25 0 C222.87 -0.59, 226.93 6.94, 228 17.75 M210.25 0 C220.95 0.32, 230.17 5.45, 228 17.75 M228 17.75 C228.48 29.01, 229.29 41.65, 228 53.25 M228 17.75 C228.9 26.19, 228.26 33.04, 228 53.25 M228 53.25 C227.3 66.03, 221.31 71.99, 210.25 71 M228 53.25 C230 64.65, 223.75 69.44, 210.25 71 M210.25 71 C141.38 71.07, 74.18 70.88, 17.75 71 M210.25 71 C159.34 70.31, 109.01 70.16, 17.75 71 M17.75 71 C6.52 70.21, 0.87 63.58, 0 53.25 M17.75 71 C8.17 71.13, 1.71 65.03, 0 53.25 M0 53.25 C0.41 40.08, -1.89 29.6, 0 17.75 M0 53.25 C0.98 40.35, 1.15 26.02, 0 17.75 M0 17.75 C-1.66 4.11, 5.61 -0.54, 17.75 0 M0 17.75 C-0.63 5.71, 5.32 0.06, 17.75 0" stroke="#1e1e1e" stroke-width="2" fill="none"></path></g><g transform="translate(396 207.5) rotate(0 30 12.5)"><text x="30" y="0" font-family="Virgil, Segoe UI Emoji" font-size="20px" fill="#1e1e1e" text-anchor="middle" style="white-space: pre;" direction="ltr" dominant-baseline="text-before-edge">客户端</text></g><g mask="url(#mask-t_VSC1crDcMBY-yCqnPk5)" stroke-linecap="round"><g transform="translate(196.57476435145736 86) rotate(0 -52.59059415629997 48.75)"><path d="M-0.94 -0.93 C-18.37 15.24, -88.16 80.67, -105.53 97.03 M0.77 1.19 C-16.77 17.53, -88.88 82.11, -106.66 98.33" stroke="#1e1e1e" stroke-width="2" fill="none"></path></g><g transform="translate(196.57476435145736 86) rotate(0 -52.59059415629997 48.75)"><path d="M-94.96 76.24 C-99.14 80.52, -100.99 86.07, -106.66 98.33 M-94.96 76.24 C-98.93 82.89, -101.53 88.29, -106.66 98.33" stroke="#1e1e1e" stroke-width="2" fill="none"></path></g><g transform="translate(196.57476435145736 86) rotate(0 -52.59059415629997 48.75)"><path d="M-83.49 88.93 C-90.25 90.28, -94.68 92.97, -106.66 98.33 M-83.49 88.93 C-90.67 91.98, -96.49 93.81, -106.66 98.33" stroke="#1e1e1e" stroke-width="2" fill="none"></path></g></g><mask id="mask-t_VSC1crDcMBY-yCqnPk5"><rect x="0" y="0" fill="#fff" width="401.7559526640573" height="283.5"></rect><rect x="123.98417019515739" y="122.25" fill="#000" width="40" height="25" opacity="1"></rect></mask><g transform="translate(123.98417019515739 122.25) rotate(0 19.646501189144345 12.44659991995897)"><text x="20" y="0" font-family="Virgil, Segoe UI Emoji" font-size="20px" fill="#1e1e1e" text-anchor="middle" style="white-space: pre;" direction="ltr" dominant-baseline="text-before-edge">数据</text></g><g mask="url(#mask-Z1cd_T2f8dKbhE3ErZhuP)" stroke-linecap="round"><g transform="translate(430.443520830755 182) rotate(0 -48.51856564259475 -47.5)"><path d="M-0.18 0.45 C-16.46 -15.29, -81.17 -79.53, -97.35 -95.56 M-1.73 -0.36 C-18.23 -15.85, -82.39 -78.58, -98.46 -94.32" stroke="#1e1e1e" stroke-width="2" fill="none"></path></g><g transform="translate(430.443520830755 182) rotate(0 -48.51856564259475 -47.5)"><path d="M-75.69 -84.01 C-82.38 -87.98, -91.6 -91.27, -98.46 -94.32 M-75.69 -84.01 C-80.79 -86.07, -86.43 -88.71, -98.46 -94.32" stroke="#1e1e1e" stroke-width="2" fill="none"></path></g><g transform="translate(430.443520830755 182) rotate(0 -48.51856564259475 -47.5)"><path d="M-87.64 -71.78 C-90.26 -79.78, -95.53 -87.11, -98.46 -94.32 M-87.64 -71.78 C-89.97 -76.73, -92.73 -82.32, -98.46 -94.32" stroke="#1e1e1e" stroke-width="2" fill="none"></path></g></g><mask id="mask-Z1cd_T2f8dKbhE3ErZhuP"><rect x="0" y="0" fill="#fff" width="627.4806521159445" height="377"></rect><rect x="343.30495625627555" y="122" fill="#000" width="77.23999786376953" height="25" opacity="1"></rect></mask><g transform="translate(343.30495625627555 122) rotate(0 37.81794650694815 12.445825086534029)"><text x="38.619998931884766" y="0" font-family="Virgil, Segoe UI Emoji" font-size="20px" fill="#1e1e1e" text-anchor="middle" style="white-space: pre;" direction="ltr" dominant-baseline="text-before-edge">控制API</text></g><g stroke-linecap="round"><g transform="translate(162 367) rotate(0 -0.5 -51)"><path d="M0.43 -1.09 C0.19 -18.06, -1.63 -84.37, -1.98 -101.31 M-0.81 0.94 C-0.63 -16.41, 0.55 -85.94, 0.22 -103.07" stroke="#1e1e1e" stroke-width="2" fill="none"></path></g><g transform="translate(162 367) rotate(0 -0.5 -51)"><path d="M8.73 -79.56 C4.64 -87.16, 5.44 -92.65, 0.22 -103.07 M8.73 -79.56 C7.47 -84.58, 5.3 -90.24, 0.22 -103.07" stroke="#1e1e1e" stroke-width="2" fill="none"></path></g><g transform="translate(162 367) rotate(0 -0.5 -51)"><path d="M-8.37 -79.59 C-8.1 -87.24, -2.94 -92.72, 0.22 -103.07 M-8.37 -79.59 C-5.56 -84.6, -3.67 -90.25, 0.22 -103.07" stroke="#1e1e1e" stroke-width="2" fill="none"></path></g></g><mask></mask><g stroke-linecap="round"><g transform="translate(101 268) rotate(0 0 50.5)"><path d="M-0.31 -0.05 C-0.23 16.73, 0.14 84.58, 0.14 101.49 M1.73 -1.12 C1.69 15.22, -0.24 82.89, -0.73 99.63" stroke="#1e1e1e" stroke-width="2" fill="none"></path></g><g transform="translate(101 268) rotate(0 0 50.5)"><path d="M-8.61 75.91 C-6.37 82.66, -3.3 88.39, -0.73 99.63 M-8.61 75.91 C-6.26 84.91, -2.82 92.09, -0.73 99.63" stroke="#1e1e1e" stroke-width="2" fill="none"></path></g><g transform="translate(101 268) rotate(0 0 50.5)"><path d="M8.48 76.39 C6.04 82.97, 4.42 88.57, -0.73 99.63 M8.48 76.39 C5.06 85.21, 2.71 92.22, -0.73 99.63" stroke="#1e1e1e" stroke-width="2" fill="none"></path></g></g><mask></mask><g transform="translate(90 380) rotate(0 40 12.5)"><text x="0" y="0" font-family="Virgil, Segoe UI Emoji" font-size="20px" fill="#1e1e1e" text-anchor="start" style="white-space: pre;" direction="ltr" dominant-baseline="text-before-edge">其他设备</text></g><g transform="translate(172 308) rotate(0 20 12.5)"><text x="0" y="0" font-family="Virgil, Segoe UI Emoji" font-size="20px" fill="#1e1e1e" text-anchor="start" style="white-space: pre;" direction="ltr" dominant-baseline="text-before-edge">请求</text></g><g transform="translate(46 309) rotate(0 20 12.5)"><text x="0" y="0" font-family="Virgil, Segoe UI Emoji" font-size="20px" fill="#1e1e1e" text-anchor="start" style="white-space: pre;" direction="ltr" dominant-baseline="text-before-edge">响应</text></g></svg>